<svg id="eosK4n967T81" xmlns="http://www.w3.org/2000/svg" xmlns:xlink="http://www.w3.org/1999/xlink" viewBox="0 0 166 49" shape-rendering="geometricPrecision" text-rendering="geometricPrecision"><defs><path id="eosK4n967T82" d="M0.014,0.03h93.96v48.29h-93.959Z"/></defs><g><path d="M0,14.13v.123l27.95,13.13L56,14.209v-.033L27.95,1L0,14.13Zm10.077.062L27.95,5.795l17.877,8.397L27.95,22.588L10.076,14.192ZM27.95,32.483L0,19.55v4.784L27.95,37.298L56,24.289v-4.784L27.95,32.483Zm0,9.703L0,29.25v4.783L27.95,47L56,33.99v-4.784L27.95,42.186Z" fill="#fff" fill-rule="evenodd"/><g transform="translate(72 0)"><g mask="url(#eosK4n967T88)"><path d="M87.56,24.152c.016497-2.065234-.75652-4.058768-2.161-5.573-.66059-.708177-1.456209-1.277011-2.34-1.673-.896067-.40191-1.867945-.606857-2.85-.601-1.01,0-1.961.2-2.852.601-.883818.395942-1.679446.964782-2.34,1.673-1.404179,1.514748-2.176822,3.508596-2.16,5.574-.016566,2.06506.756059,4.058504,2.16,5.573.660647.707858,1.456268,1.276353,2.34,1.672.896298.402394,1.868535.607685,2.851.602c1.01,0,1.96-.2,2.852-.602.883347-.395809,1.67861-.964291,2.339-1.672c1.404354-1.514638,2.177024-3.508558,2.16-5.574Zm6.415,0c0,1.932-.357,3.723-1.07,5.373-.684557,1.60857-1.684197,3.063828-2.94,4.28-1.247,1.205-2.71,2.156-4.388,2.854-1.678.699-3.468,1.048-5.369,1.048-1.9,0-3.683-.349-5.346-1.048-1.624568-.673083-3.106245-1.649103-4.366-2.876-1.253036-1.226988-2.252059-2.688824-2.94-4.302-.713-1.65-1.07-3.426-1.07-5.329c0-1.873.364-3.634,1.092-5.284.70452-1.616241,1.709673-3.083928,2.962-4.325c1.255141-1.238603,2.738054-2.222684,4.367-2.898c1.678733-.701642,3.481565-1.058059,5.301-1.048c1.901,0,3.69.35,5.369,1.048c1.678.698,3.14,1.65,4.388,2.854s2.228,2.638,2.94,4.302c.713,1.665,1.07,3.449,1.07,5.351ZM64.258,36.905c-.549668.253134-1.124519.447545-1.715.58-.638.148-1.3.222-1.982.222-.926623.003309-1.849068-.124285-2.74-.379-.845431-.235967-1.628831-.654463-2.295-1.226-.653-.565-1.173-1.3-1.56-2.207-.385-.907-.578-2-.578-3.277v-30.589h6.549v29.474c0,1.07.215,1.806.646,2.207.43.401.943.602,1.537.602.742,0,1.455-.223,2.138-.669v5.262ZM50.492,11.22L38.908,41.854c-.861,2.289-1.99,3.939-3.386,4.95-1.396,1.01-3.06,1.515-4.99,1.515-.297,0-.623-.022-.98-.066-.346-.042614-.688531-.109783-1.025-.201l-2.138-5.975c.500591.236096,1.02308.422651,1.56.557.534.134,1.039.201,1.514.201c1.01,0,1.93-.23,2.762-.691.832-.46,1.47-1.315,1.916-2.564l.891-2.586-9.935-25.773h6.995l5.925,16.588l5.57-16.588h6.905ZM23.538,7.342h-16.752v8.294h16.529v5.618h-16.53v15.784h-6.77v-35.626h23.524v5.93Z" fill="#fff" fill-rule="evenodd"/><mask id="eosK4n967T88" mask-type="luminance"><use width="93.959999" height="48.290001" xlink:href="#eosK4n967T82" fill="#fff" fill-rule="evenodd"/></mask></g></g></g></svg>